<!-- icon666.com - MILLIONS vector ICONS FREE --><svg version="1.1" id="Capa_1" xmlns="http://www.w3.org/2000/svg" xmlns:xlink="http://www.w3.org/1999/xlink" x="0px" y="0px" viewBox="0 0 512 512" style="enable-background:new 0 0 512 512;" xml:space="preserve"><path style="fill:#FEDB41;" d="M406,0H106c-8.401,0-15,6.599-15,15v55.8l0.3,0.3L120.7,90H397l24-18.9V15C421,6.599,414.401,0,406,0 z"></path><path style="fill:#FCBF29;" d="M421,15v56.1L397,90H256V0h150C414.401,0,421,6.599,421,15z"></path><path style="fill:#FEA832;" d="M464.5,158.401L421,71.1H91.3l-43.8,87.301C46.601,160.499,46,162.6,46,165v302 c0,24.901,20.099,45,45,45h330c24.901,0,45-20.099,45-45V165C466,162.599,465.399,160.499,464.5,158.401z"></path><path style="fill:#FE9923;" d="M466,165v302c0,24.901-20.099,45-45,45H256V71.1h165l43.5,87.301 C465.399,160.499,466,162.599,466,165z"></path><path style="fill:#E1E4FB;" d="M256,135c-82.8,0-150,67.2-150,150s67.2,150,150,150s150-67.2,150-150S338.8,135,256,135z"></path><g><path style="fill:#32D736;" d="M271,300v60c0,8.401-6.599,15-15,15s-15-6.599-15-15v-60c0-8.401,6.599-15,15-15 S271,291.599,271,300z"></path><path style="fill:#32D736;" d="M347.5,238.801c-0.899-6.301-6-11.4-12.299-12.301c-18.6-3.3-31.8-0.599-42.601,2.701 c-17.399,5.7-27.299,14.7-35.999,26.7C256.3,255.601,256,255.3,256,255c-9-11.7-18.6-20.4-36-26.1 c-9.901-2.701-23.399-5.7-42.299-2.401c-6.301,0.901-11.1,6-12.301,12.301c-3.3,18.6-0.599,31.8,2.701,42.599 c7.5,21.899,23.101,39,47.401,47.1c6.599,2.1,15,3.9,25.8,3.9c4.2,0,9.3-0.3,14.7-1.201c0.3,0,0.3,0,0.601,0 c14.099,2.1,25.8,1.8,41.4-2.699c22.5-7.8,39-24,47.098-47.701C348.1,270.601,350.799,257.401,347.5,238.801z"></path></g><path style="fill:#C5C9F7;" d="M406,285c0,82.8-67.2,150-150,150V135C338.8,135,406,202.2,406,285z"></path><g><path style="fill:#10BB67;" d="M345.099,280.8c-8.099,23.701-24.598,39.9-47.098,47.7c-15.601,4.499-27.301,4.799-41.4,2.699 c-0.3,0-0.3,0-0.601,0V255c0,0.3,0.3,0.601,0.601,0.901c8.699-12.001,18.6-21,35.999-26.7c10.801-3.3,24.001-6,42.601-2.701 c6.299,0.901,11.4,6,12.299,12.301C350.799,257.401,348.1,270.601,345.099,280.8z"></path><path style="fill:#10BB67;" d="M271,300v60c0,8.401-6.599,15-15,15v-90C264.401,285,271,291.599,271,300z"></path></g></svg>